Coordinates
version=1
nRows=17
nColumns=24
inDegrees=yes

Units are S.I. units (second, meters, Newtons, ...)
Angles are in degrees.

endheader
time	pelvis_tilt	pelvis_list	pelvis_rotation	pelvis_tx	pelvis_ty	pelvis_tz	hip_flexion_r	hip_adduction_r	hip_rotation_r	knee_angle_r	ankle_angle_r	subtalar_angle_r	mtp_angle_r	hip_flexion_l	hip_adduction_l	hip_rotation_l	knee_angle_l	ankle_angle_l	subtalar_angle_l	mtp_angle_l	lumbar_extension	lumbar_bending	lumbar_rotation
      3.90000000	    -13.81868911	    -10.20442341	      9.20097589	      1.40655753	     -0.02580324	     -0.44017605	     31.82439899	      6.13160113	    -13.79027728	    -18.56672061	     -6.88528093	      1.17982984	      9.15193111	     14.76836069	    -18.86996220	     -9.78727589	    -56.38818910	    -34.16396233	     11.98434289	     21.78186982	     14.32373442	      9.47493317	     -7.45096996
      3.90500000	    -13.68457824	    -10.18367543	      9.10854540	      1.41227452	     -0.02472278	     -0.43936590	     31.17025657	      6.35359145	    -13.65255488	    -18.26127000	     -6.65994728	      1.30685587	      9.21340901	     15.38864294	    -18.87927924	     -9.61720723	    -57.38170103	    -33.32128506	     11.34240217	     22.04362013	     14.17742510	      9.47252520	     -7.29503835
      3.91000000	    -13.57498123	    -10.12332955	      9.02627010	      1.41789611	     -0.02364188	     -0.43856795	     30.53905927	      6.52240782	    -13.50635200	    -17.95668086	     -6.43428717	      1.43227183	      9.27794830	     16.03920430	    -18.81546232	     -9.42592167	    -58.31532742	    -32.46493040	     10.81247074	     22.31537438	     14.04206075	      9.42067687	     -7.11907435
      3.91500000	    -13.48093192	    -10.04212469	      8.93162184	      1.42350529	     -0.02256050	     -0.43777510	     29.91347134	      6.66950548	    -13.35060613	    -17.63926140	     -6.21784839	      1.57066900	      9.34742489	     16.68849027	    -18.71481848	     -9.25109367	    -59.17550190	    -31.59938970	     10.41510276	     22.62150448	     13.92268696	      9.34736208	     -6.91502846
      3.92000000	    -13.40340697	     -9.90861720	      8.81617004	      1.42907976	     -0.02145543	     -0.43697490	     29.29365382	      6.77056340	    -13.15669727	    -17.31489210	     -6.01712085	      1.68824787	      9.39370923	     17.31801701	    -18.53834516	     -9.09863178	    -59.94056250	    -30.76627419	     10.13027818	     23.00212806	     13.81048891	      9.22667712	     -6.64876550
      3.92500000	    -13.33033889	     -9.78015030	      8.68500324	      1.43463313	     -0.02038024	     -0.43617283	     28.67630750	      6.87807150	    -12.96279431	    -16.98282517	     -5.82446855	      1.81566130	      9.44186710	     17.94196992	    -18.36712199	     -8.98498930	    -60.64840371	    -29.94879848	      9.90064859	     23.38560092	     13.70480169	      9.11241028	     -6.41604414
      3.93000000	    -13.21451263	     -9.68842060	      8.52076844	      1.44022837	     -0.01930397	     -0.43529164	     28.00322253	      7.04859204	    -12.76279978	    -16.61623854	     -5.67486051	      1.93761078	      9.55152088	     18.49497139	    -18.26603001	     -8.88723389	    -61.28666450	    -29.08619670	     10.06750211	     23.86889216	     13.56623258	      9.04893248	     -6.16153934
      3.93500000	    -13.12815982	     -9.53126613	      8.33866379	      1.44582849	     -0.01821763	     -0.43441873	     27.34173247	      7.15563367	    -12.49529419	    -16.23914091	     -5.52069585	      2.02720821	      9.63596343	     19.03575564	    -18.07028007	     -8.82913505	    -61.83084789	    -28.32160558	     10.17312674	     24.34483300	     13.45373313	      8.91511029	     -5.88840863
      3.94000000	    -13.03782343	     -9.36355371	      8.13577726	      1.45136183	     -0.01714940	     -0.43351088	     26.67973030	      7.25847334	    -12.20619876	    -15.86465475	     -5.38389339	      2.09401368	      9.71257651	     19.55813108	    -17.86519686	     -8.79428459	    -62.31492686	    -27.61195147	     10.36865452	     24.85657926	     13.32502183	      8.77666185	     -5.57951814
      3.94500000	    -12.94566984	     -9.18193590	      7.91330507	      1.45686764	     -0.01609096	     -0.43257583	     26.01063425	      7.35347071	    -11.89061033	    -15.48079010	     -5.26171181	      2.13584386	      9.78289004	     20.05663727	    -17.64555262	     -8.78366584	    -62.73163451	    -26.95258880	     10.64278949	     25.38934065	     13.19123683	      8.62781425	     -5.25062517
      3.95000000	    -12.83850526	     -8.99521485	      7.67122740	      1.46230190	     -0.01503923	     -0.43161276	     25.32888905	      7.45070465	    -11.54085859	    -15.09497703	     -5.17312157	      2.13655474	      9.85222252	     20.52616640	    -17.42408232	     -8.79498397	    -63.09144054	    -26.33747519	     10.97284909	     25.94595663	     13.02726738	      8.48140556	     -4.89189728
      3.95500000	    -12.76760073	     -8.78294396	      7.42087864	      1.46783970	     -0.01403908	     -0.43064860	     24.66578870	      7.51181369	    -11.19212967	    -14.69635543	     -5.04240696	      2.17659543	      9.91614387	     21.00112155	    -17.16697867	     -8.83346903	    -63.37787659	    -25.75081288	     11.34152290	     26.46291152	     12.92822592	      8.29895050	     -4.55858161
      3.96000000	    -12.66346589	     -8.57552532	      7.13855187	      1.47321678	     -0.01303322	     -0.42964796	     23.98387126	      7.59060882	    -10.79812202	    -14.30408971	     -4.98015617	      2.15777166	      9.97642950	     21.43444603	    -16.92791728	     -8.89767583	    -63.61854647	    -25.18195799	     11.77414218	     27.01657675	     12.76260433	      8.13999407	     -4.16121371
      3.96500000	    -12.59931332	     -8.33987832	      6.85937452	      1.47869797	     -0.01209364	     -0.42865929	     23.32681745	      7.62345593	    -10.41471829	    -13.90423421	     -4.85662477	      2.18348987	     10.03762738	     21.88405630	    -16.64906123	     -8.98288366	    -63.79393171	    -24.63213963	     12.22033718	     27.50938031	     12.66775930	      7.93792344	     -3.80489661
      3.97000000	    -12.46832874	     -8.13467669	      6.53903168	      1.48409157	     -0.01112301	     -0.42759498	     22.59764034	      7.71787901	     -9.93965420	    -13.47663078	     -4.82350526	      2.08406750	     10.10467962	     22.24765325	    -16.43661924	     -9.11702276	    -63.91991619	    -24.08252784	     12.67052806	     28.02966594	     12.48221806	      7.78766176	     -3.38999066
      3.97500000	    -12.42860292	     -7.87245797	      6.23525283	      1.48942571	     -0.01025808	     -0.42659946	     21.98445313	      7.70458133	     -9.56772455	    -13.09967835	     -4.72236180	      2.14150339	     10.15859722	     22.70488076	    -16.12053262	     -9.22467908	    -63.99919085	    -23.52802997	     13.15070386	     28.45610738	     12.39427820	      7.56347398	     -2.99243105
      3.98000000	    -12.35950485	     -7.63210208	      5.89884399	      1.49477129	     -0.00941547	     -0.42555740	     21.33097586	      7.72961731	     -9.13743499	    -12.70010080	     -4.64132147	      2.14196888	     10.20354741	     23.10959358	    -15.85412261	     -9.37805587	    -64.02880455	    -22.95333793	     13.63197241	     28.85734329	     12.27937782	      7.36993108	     -2.56691892
